<svg version="1.1" id="Layer_1" xmlns="http://www.w3.org/2000/svg" xmlns:xlink="http://www.w3.org/1999/xlink" x="0px" y="0px"
	 width="100%" viewBox="0 0 6180 2272" enable-background="new 0 0 6180 2272" xml:space="preserve">
<path fill="#FEFEFD" opacity="1.000000" stroke="none" 
	d="
M2.000000,2272.000000 
	C2.000000,1515.387939 2.000000,758.776001 2.000000,2.081994 
	C2061.796631,2.081994 4121.593262,2.081994 6182.000000,2.081994 
	C6182.000000,758.075073 6182.000000,1514.150391 6181.551758,2271.316895 
	C6180.546875,2272.807373 6180.178711,2273.337891 6180.000000,2274.000000 
	C4121.924805,2274.000000 2063.849609,2274.000000 4.682821,2273.552246 
	C3.195946,2272.541260 2.665537,2272.173340 2.000000,2272.000000 
M1147.720947,649.328430 
	C1159.096802,663.258423 1170.072021,677.386902 1179.482422,692.850952 
	C1203.266602,731.935486 1220.775879,773.351074 1229.104980,818.457458 
	C1230.857544,827.948486 1232.208008,837.513367 1233.907227,847.014954 
	C1235.579712,856.366211 1237.622803,858.093933 1247.180786,858.081055 
	C1267.175415,858.054138 1287.169800,857.849609 1307.164429,857.795471 
	C1325.826050,857.744995 1344.489014,857.920532 1363.149048,857.747681 
	C1372.570190,857.660461 1374.654785,854.840820 1372.124756,846.098450 
	C1369.720093,837.789368 1367.162720,829.514771 1364.358398,821.332703 
	C1352.863037,787.793823 1337.189575,756.043701 1319.150146,725.762207 
	C1293.212646,682.223022 1263.560059,641.233337 1226.959961,605.667542 
	C1206.876709,586.151794 1186.377075,567.272766 1163.733521,550.642883 
	C1120.994385,519.254456 1075.047241,494.059387 1024.672241,477.466919 
	C987.631531,465.266418 950.051514,455.129700 910.682007,453.467255 
	C904.750366,453.216797 897.972168,453.847992 892.275635,448.636871 
	C895.209473,435.398224 898.075439,422.098480 901.112671,408.837952 
	C907.055298,382.892273 913.860535,357.116333 918.896118,330.997803 
	C925.056702,299.044006 910.077881,275.723053 878.870117,267.417786 
	C859.867126,262.360596 840.493958,262.428253 821.689270,268.450043 
	C806.428772,273.336914 796.410583,284.075378 792.049805,299.702484 
	C788.534790,312.298950 789.769287,324.918274 793.142090,337.203094 
	C800.189880,362.873596 807.718811,388.413483 815.213745,413.959045 
	C818.759277,426.043518 821.883789,438.149475 822.123657,451.626923 
	C817.295593,452.524445 813.145264,453.437988 808.950500,454.043793 
	C802.033813,455.042633 795.034851,455.543732 788.163391,456.773376 
	C731.276611,466.953613 677.463440,485.698883 627.667542,515.276550 
	C590.261658,537.494812 555.787537,563.624512 525.987854,595.417664 
	C511.893463,610.454895 498.584656,626.327759 485.981201,642.641907 
	C461.863312,673.860413 442.233856,707.788269 426.389282,744.001709 
	C413.541077,773.366821 402.155762,803.143188 395.165436,834.481445 
	C394.079712,839.348999 392.866150,844.228394 392.332794,849.169312 
	C391.568787,856.246399 393.366119,858.139893 400.601440,858.135498 
	C410.930176,858.129272 421.258667,857.653503 431.587311,857.652039 
	C530.559082,857.637939 629.530884,857.705811 728.502625,857.702209 
	C844.136536,857.697998 959.770508,857.647095 1075.404419,857.611877 
	C1086.734497,857.608398 1098.072021,857.820496 1109.392090,857.473267 
	C1118.062866,857.207336 1120.096924,855.643005 1120.579468,846.896179 
	C1121.163696,836.310547 1120.507935,825.652283 1120.289551,815.027466 
	C1119.629517,782.925476 1115.030029,751.504700 1105.682617,720.666260 
	C1093.561768,680.677612 1075.333496,643.988220 1049.243652,611.330200 
	C1024.498413,580.355225 995.478271,554.097900 961.777588,533.081421 
	C954.783020,528.719482 948.033081,523.965393 941.170410,519.392029 
	C941.420166,518.789185 941.669861,518.186340 941.919617,517.583496 
	C945.865295,518.720581 949.884338,519.654297 953.738892,521.044067 
	C959.059998,522.962708 964.183838,525.434326 969.519836,527.304810 
	C993.826233,535.825500 1016.795715,547.274292 1038.989624,560.128906 
	C1079.624878,583.664734 1115.957275,612.648865 1147.720947,649.328430 
M989.930054,1199.069702 
	C979.002686,1204.694580 968.421997,1211.167969 957.088257,1215.798096 
	C907.148438,1236.199341 858.259399,1232.723633 810.520020,1208.163818 
	C790.867615,1198.053467 775.798767,1182.784424 761.024353,1166.727417 
	C739.899963,1143.769409 724.067993,1117.952026 714.284851,1088.408081 
	C710.334290,1076.477539 706.785645,1064.413818 703.075745,1052.480469 
	C689.766174,1052.480469 676.811401,1052.459473 663.856812,1052.484131 
	C617.196350,1052.572998 570.535889,1052.666504 523.875488,1052.790771 
	C518.629211,1052.804810 513.253357,1052.415283 508.375031,1055.812988 
	C508.375031,1059.953979 507.947784,1063.964844 508.440582,1067.859253 
	C513.849792,1110.603760 522.643921,1152.700317 536.673828,1193.406738 
	C551.022888,1235.039307 568.805481,1275.249146 593.936035,1311.783569 
	C602.047180,1323.575439 610.565552,1335.116455 618.122742,1347.254761 
	C638.158875,1379.436523 663.324341,1407.570068 689.141479,1434.872803 
	C715.207214,1462.438721 743.454407,1487.961670 771.115295,1513.987183 
	C779.576416,1521.948120 789.777344,1528.053833 798.285583,1535.971680 
	C828.459900,1564.052734 862.826111,1586.373535 896.956299,1609.064941 
	C902.331726,1612.638794 907.026184,1612.511353 912.642456,1609.179688 
	C950.901855,1586.483765 985.431458,1558.731812 1019.955078,1530.923462 
	C1050.149414,1506.602173 1076.990845,1478.762451 1103.777588,1450.937134 
	C1120.153809,1433.925903 1135.676147,1415.952271 1150.190552,1397.326538 
	C1166.545776,1376.338745 1182.593994,1354.905762 1196.518921,1332.277710 
	C1218.029907,1297.322144 1235.309326,1260.072021 1247.982666,1220.943604 
	C1263.766113,1172.213745 1273.059814,1122.212524 1275.172485,1070.958130 
	C1275.865234,1054.153687 1275.852783,1053.967285 1258.447388,1053.844238 
	C1201.126831,1053.438843 1143.805298,1053.194580 1086.484253,1052.855957 
	C1070.305176,1052.760376 1070.678833,1052.768188 1068.134155,1068.917358 
	C1059.730103,1122.250854 1035.799561,1166.455933 989.930054,1199.069702 
M5360.836914,1452.156494 
	C5389.844727,1487.639893 5426.541504,1511.297363 5471.103027,1521.806763 
	C5504.618164,1529.710815 5538.260254,1530.004395 5571.959473,1520.868896 
	C5592.426270,1515.320557 5612.001953,1508.561035 5629.223633,1495.856445 
	C5639.052246,1488.606079 5640.077637,1488.979736 5650.575195,1495.221802 
	C5661.440430,1501.682129 5672.145996,1508.712769 5683.712402,1513.634644 
	C5715.173828,1527.022705 5748.187012,1532.731323 5782.373047,1529.547729 
	C5819.719238,1526.070068 5854.979980,1516.317139 5885.916504,1493.887573 
	C5917.751953,1470.806519 5940.221680,1441.504883 5950.121094,1402.783447 
	C5955.999512,1379.788940 5956.564941,1356.703613 5955.258301,1333.349243 
	C5952.821289,1289.771240 5950.363281,1246.194092 5947.763184,1202.625732 
	C5946.056641,1174.027344 5944.309082,1145.428101 5942.174805,1116.859619 
	C5939.824707,1085.399658 5911.008301,1049.893677 5862.592773,1052.842896 
	C5825.509766,1055.101685 5789.573242,1083.043457 5793.055664,1130.831665 
	C5794.919922,1156.406860 5795.245605,1182.090454 5796.603516,1207.707275 
	C5798.754883,1248.288818 5801.394043,1288.845215 5803.368652,1329.434692 
	C5803.900391,1340.365845 5803.566406,1351.476562 5802.209473,1362.327271 
	C5800.479980,1376.157715 5794.090332,1387.429077 5780.798340,1394.014648 
	C5755.509766,1406.544678 5710.138184,1393.763672 5706.072754,1354.769775 
	C5704.485840,1339.547363 5703.188965,1324.287720 5702.129883,1309.019409 
	C5700.609375,1287.096069 5700.205078,1265.065796 5697.864746,1243.237549 
	C5695.826172,1224.219604 5686.307617,1208.885986 5670.412109,1197.544556 
	C5654.354004,1186.087280 5636.529785,1181.849731 5617.393066,1184.570923 
	C5600.083984,1187.032471 5585.238281,1195.245850 5573.400391,1208.293335 
	C5561.781250,1221.100220 5559.881348,1236.908081 5560.705078,1253.199463 
	C5562.084473,1280.476685 5564.235352,1307.718506 5565.328125,1335.004639 
	C5565.697754,1344.216431 5564.961914,1353.788330 5562.798828,1362.728149 
	C5555.717773,1391.987671 5516.976074,1411.603882 5481.500977,1386.151855 
	C5472.826660,1379.928101 5466.809570,1371.644043 5464.897949,1360.889160 
	C5463.619141,1353.694214 5462.009766,1346.482666 5461.605957,1339.219849 
	C5458.775879,1288.327148 5456.246094,1237.417969 5453.563965,1186.516846 
	C5452.459473,1165.560425 5451.846191,1144.549072 5449.786621,1123.683350 
	C5448.621094,1111.872803 5447.034668,1099.335083 5442.065430,1088.812012 
	C5426.702148,1056.280640 5385.857422,1042.763672 5358.539062,1050.904297 
	C5326.702637,1060.391113 5305.969238,1079.478882 5307.666504,1116.582153 
	C5309.356934,1153.522461 5310.981934,1190.468140 5313.038574,1227.388916 
	C5315.095215,1264.304810 5318.157715,1301.169678 5319.850098,1338.099487 
	C5321.767578,1379.961670 5334.210938,1417.778442 5360.836914,1452.156494 
M2678.235352,1422.762817 
	C2691.167480,1433.212402 2703.087402,1445.357666 2717.221436,1453.793579 
	C2759.527100,1479.044434 2805.243652,1492.570312 2855.206787,1490.572144 
	C2903.781982,1488.629395 2947.749756,1473.255737 2985.696777,1443.787354 
	C3029.827393,1409.517090 3056.881592,1364.134766 3062.979248,1307.685059 
	C3068.242188,1258.963135 3059.834229,1212.591797 3036.089355,1169.652832 
	C3012.088867,1126.251831 2977.527100,1093.210571 2933.431885,1070.386841 
	C2904.355469,1055.336792 2873.343994,1045.925903 2840.702881,1044.691040 
	C2798.544189,1043.096191 2759.544678,1053.761719 2725.974121,1080.679932 
	C2724.075439,1082.202271 2721.790039,1083.241577 2718.754150,1085.064453 
	C2718.314941,1082.224609 2717.913330,1080.686279 2717.862549,1079.136597 
	C2717.288086,1061.488770 2716.945068,1043.831421 2716.192139,1026.191528 
	C2714.856445,994.904175 2713.383301,963.621765 2711.740723,932.349182 
	C2711.267334,923.333252 2710.275391,914.028748 2703.674316,907.163208 
	C2697.482178,900.722778 2690.991943,894.188293 2683.529541,889.422485 
	C2662.427490,875.945923 2624.794922,873.378418 2602.500244,904.706421 
	C2593.045410,917.991882 2592.031494,933.202881 2592.763428,948.715515 
	C2594.442871,984.317505 2596.394775,1019.906921 2597.991943,1055.512451 
	C2600.364990,1108.423340 2602.140137,1161.364136 2604.937500,1214.251587 
	C2606.395996,1241.830078 2608.274658,1269.494141 2612.125732,1296.814697 
	C2619.041260,1345.873901 2640.390625,1388.009644 2678.235352,1422.762817 
M4948.425781,1049.225830 
	C4915.479980,1055.272095 4883.777344,1064.558594 4854.334961,1081.306519 
	C4817.742188,1102.121582 4788.638184,1130.378296 4768.266113,1166.922852 
	C4741.220703,1215.438965 4737.910156,1267.715820 4748.069824,1321.235352 
	C4755.389160,1359.790771 4774.197266,1392.818970 4799.459961,1422.499390 
	C4815.760254,1441.650024 4834.174805,1458.169434 4854.803223,1472.672119 
	C4889.646484,1497.168701 4928.001465,1511.277954 4969.993164,1517.510376 
	C5006.043945,1522.860840 5041.250977,1519.466064 5075.832031,1509.938232 
	C5103.193848,1502.399658 5128.632324,1490.150269 5152.468750,1474.176392 
	C5179.270996,1456.214844 5201.333496,1434.240479 5217.612305,1406.477417 
	C5231.200195,1383.303711 5241.334961,1358.755859 5245.139648,1331.993286 
	C5248.477539,1308.511597 5250.152832,1284.952881 5245.844238,1261.355713 
	C5241.387207,1236.945190 5233.985840,1213.479980 5222.013672,1191.724365 
	C5214.320312,1177.745117 5206.661621,1163.495239 5196.987793,1150.903687 
	C5164.596680,1108.746094 5121.437012,1080.773193 5072.340332,1062.247070 
	C5033.054199,1047.422974 4991.821289,1044.957642 4948.425781,1049.225830 
M4314.974121,1210.305420 
	C4303.641602,1186.160522 4285.491699,1171.153198 4258.332520,1168.719849 
	C4247.724121,1167.769165 4237.042969,1167.300293 4226.390625,1167.223999 
	C4193.410156,1166.987549 4160.426758,1167.159668 4127.446289,1166.928467 
	C4115.541992,1166.844971 4103.643066,1166.067627 4091.594727,1165.601074 
	C4091.135254,1163.592041 4090.647949,1162.348267 4090.590576,1161.084839 
	C4088.413818,1113.160156 4086.220947,1065.235962 4084.169434,1017.305725 
	C4083.566406,1003.221680 4083.757080,1003.159973 4098.421875,1003.224243 
	C4137.079102,1003.393677 4175.737793,1003.888855 4214.393555,1003.731140 
	C4248.036621,1003.593933 4281.682617,1002.970825 4315.315430,1002.103455 
	C4330.649414,1001.707947 4344.092773,995.396057 4354.157715,984.023499 
	C4370.827637,965.188416 4376.733887,943.195190 4367.743652,919.055542 
	C4359.133789,895.936646 4342.665527,880.596436 4317.872559,876.313904 
	C4306.471191,874.344543 4294.683105,873.983643 4283.069336,873.973755 
	C4198.754883,873.901794 4114.439941,873.987915 4030.126709,874.370544 
	C4019.546387,874.418579 4008.852539,875.825928 3998.424072,877.754700 
	C3972.238037,882.597900 3954.227295,902.051270 3949.893555,928.251221 
	C3947.462646,942.948730 3949.225830,957.459167 3949.965088,972.088623 
	C3952.149902,1015.343262 3953.963867,1058.616455 3955.940186,1101.881714 
	C3958.554688,1159.128418 3961.242432,1216.371582 3963.792480,1273.621094 
	C3966.075439,1324.877197 3968.175049,1376.141235 3970.469482,1427.396851 
	C3970.737061,1433.372559 3971.485352,1439.354980 3972.433594,1445.266479 
	C3975.515869,1464.480835 3985.631836,1479.366211 4001.780029,1489.800659 
	C4014.070068,1497.741943 4028.091797,1501.374268 4042.646729,1501.298950 
	C4078.291260,1501.114746 4105.286133,1470.881592 4104.092285,1442.767700 
	C4103.287109,1423.804077 4102.946289,1404.820190 4102.070801,1385.860352 
	C4100.779785,1357.911499 4099.172852,1329.977417 4097.789062,1302.032471 
	C4097.695312,1300.148804 4098.343750,1298.228394 4098.758789,1295.624390 
	C4102.237793,1295.233032 4105.476562,1294.534912 4108.710449,1294.556519 
	C4141.031250,1294.772949 4173.351074,1295.327393 4205.671387,1295.329224 
	C4225.976562,1295.330444 4246.362793,1295.529907 4266.565918,1293.862305 
	C4288.874512,1292.020874 4305.047852,1279.565552 4314.457031,1259.333740 
	C4321.653320,1243.860718 4321.907227,1227.756470 4314.974121,1210.305420 
M3749.026611,1071.986816 
	C3727.444580,1059.987671 3703.689941,1053.845703 3679.798096,1050.112305 
	C3645.097900,1044.690063 3610.156250,1044.661621 3575.987549,1055.569092 
	C3561.059082,1060.334473 3546.252930,1065.111206 3532.282227,1072.465454 
	C3506.614014,1085.977539 3484.371582,1103.609497 3465.014648,1125.161499 
	C3451.979736,1139.674438 3441.753662,1155.902710 3433.154053,1173.298584 
	C3424.184814,1191.442871 3419.993408,1210.915405 3416.674316,1230.677002 
	C3411.685059,1260.380981 3413.994141,1289.852295 3420.188965,1319.015991 
	C3428.495605,1358.120850 3448.360840,1391.448730 3474.600342,1420.943359 
	C3505.463623,1455.635620 3544.233643,1478.532837 3588.127197,1492.691650 
	C3627.482178,1505.386353 3667.928223,1507.045288 3708.705811,1501.876343 
	C3733.717041,1498.705688 3757.612793,1491.844360 3778.951660,1477.774780 
	C3789.453369,1470.850464 3798.644287,1462.469238 3802.695068,1450.286011 
	C3810.471191,1426.899048 3808.137695,1401.576538 3785.189941,1381.094971 
	C3770.124023,1367.648315 3741.569580,1357.225708 3717.315430,1370.344116 
	C3701.416504,1378.943359 3684.125977,1384.787354 3666.040283,1386.125488 
	C3618.838135,1389.617798 3582.689453,1370.594482 3557.510010,1330.618408 
	C3556.885742,1329.626831 3556.942871,1328.205933 3556.422852,1325.771729 
	C3560.983643,1325.610718 3564.846924,1325.313843 3568.706055,1325.362549 
	C3611.344482,1325.901123 3653.981689,1326.566284 3696.620605,1327.046997 
	C3727.603027,1327.396118 3758.589355,1327.762207 3789.572021,1327.650391 
	C3806.873779,1327.587891 3824.244385,1327.349243 3841.452637,1325.762695 
	C3859.977783,1324.055054 3872.834961,1313.862427 3878.875488,1295.815063 
	C3883.832764,1281.005127 3885.123047,1265.850830 3882.868896,1250.450562 
	C3879.666504,1228.569092 3873.800537,1207.467041 3863.655518,1187.692261 
	C3858.802490,1178.233154 3855.217285,1167.804688 3848.851807,1159.507568 
	C3836.102783,1142.889038 3822.152588,1127.146851 3808.037842,1111.643921 
	C3802.530029,1105.594238 3795.599854,1100.617676 3788.690430,1096.114380 
	C3776.141602,1087.935547 3763.123779,1080.476562 3749.026611,1071.986816 
M2291.080322,1042.754395 
	C2274.266357,1044.937988 2257.094482,1045.639160 2240.707520,1049.592407 
	C2197.378906,1060.045288 2160.977539,1082.853149 2131.777588,1116.456909 
	C2107.764648,1144.091309 2091.247314,1175.733154 2084.815918,1212.151978 
	C2081.383301,1231.588989 2080.374023,1251.086914 2081.860596,1270.841553 
	C2084.269287,1302.843506 2092.519043,1332.843994 2108.125488,1361.081543 
	C2130.358398,1401.309204 2161.750000,1431.798584 2201.769775,1454.052246 
	C2235.193848,1472.638062 2271.033447,1481.126953 2308.973877,1481.573730 
	C2345.506592,1482.004150 2380.341553,1474.054321 2413.764404,1459.542480 
	C2423.229248,1455.432983 2423.127197,1455.511230 2429.586182,1462.815308 
	C2432.660889,1466.292114 2435.877197,1469.784546 2439.568359,1472.551147 
	C2458.514404,1486.752563 2479.022949,1489.663330 2500.613037,1479.392212 
	C2521.095947,1469.647827 2532.415283,1453.669312 2531.825195,1430.314697 
	C2531.783203,1428.650513 2531.936523,1426.980469 2531.869629,1425.318237 
	C2529.742676,1372.408081 2528.096680,1319.471558 2525.222656,1266.601807 
	C2524.016357,1244.407837 2521.508789,1222.234619 2513.881592,1200.873535 
	C2500.629883,1163.760498 2480.911377,1130.635254 2451.273926,1104.795654 
	C2406.156494,1065.459595 2353.692627,1043.046021 2291.080322,1042.754395 
M771.000000,906.010071 
	C630.715820,906.028931 490.431610,906.035828 350.147400,906.089111 
	C338.821045,906.093445 327.460846,905.924805 316.176453,906.705383 
	C299.056488,907.889526 287.734039,917.349243 282.762421,933.597290 
	C281.887512,936.456543 281.039215,939.369934 280.638031,942.320862 
	C277.064819,968.602356 291.257141,993.454895 318.859283,997.436340 
	C325.403259,998.380310 332.161560,997.961243 338.821289,997.961365 
	C534.417297,997.963867 730.013367,997.912231 925.609375,997.928955 
	C1097.547241,997.943665 1269.484985,998.032776 1441.422852,998.072021 
	C1446.752563,998.073181 1452.104370,998.161560 1457.408081,997.737183 
	C1479.224609,995.991516 1492.026855,984.489502 1494.278809,962.850891 
	C1495.220825,953.800232 1493.769531,944.328125 1492.259155,935.238220 
	C1490.379395,923.925720 1482.893066,916.554016 1472.905762,911.283325 
	C1463.023926,906.068237 1452.435425,905.934021 1441.747925,905.937927 
	C1330.790283,905.978333 1219.832642,906.046570 1108.875000,906.056702 
	C996.916687,906.066956 884.958313,906.020386 771.000000,906.010071 
M1748.011230,884.676086 
	C1726.274658,889.493469 1710.929932,902.585327 1705.174072,923.672974 
	C1697.332153,952.403015 1708.467285,979.523865 1735.826904,993.490784 
	C1745.963501,998.665466 1756.595947,1000.214539 1767.741943,1000.168396 
	C1797.739502,1000.044373 1827.737915,999.978882 1857.735352,1000.086426 
	C1863.614624,1000.107605 1869.490723,1001.010803 1875.947510,1001.556213 
	C1876.325317,1005.804199 1876.732666,1009.051819 1876.880859,1012.311157 
	C1877.258789,1020.625793 1877.447510,1028.949219 1877.840820,1037.262939 
	C1881.778931,1120.474854 1885.737305,1203.685791 1889.702026,1286.896484 
	C1891.779541,1330.502197 1894.365356,1374.091064 1895.785645,1417.718018 
	C1896.601685,1442.779297 1913.940430,1467.483154 1940.630493,1474.974609 
	C1973.505859,1484.202026 2007.115234,1463.082031 2011.566772,1429.229736 
	C2012.646362,1421.019165 2012.880371,1412.598755 2012.536011,1404.315186 
	C2009.656982,1335.063477 2006.645630,1265.816772 2003.473633,1196.577881 
	C2002.024902,1164.952881 1999.969849,1133.356079 1998.475830,1101.733032 
	C1997.028931,1071.106567 1995.848511,1040.466553 1994.767700,1009.824890 
	C1994.428711,1000.214478 1995.186523,999.485291 2004.748657,999.389954 
	C2017.408813,999.263611 2030.076660,999.833069 2042.735718,999.672546 
	C2066.055664,999.376831 2089.428711,999.614075 2112.673584,998.053040 
	C2136.553467,996.449463 2157.407227,974.349792 2160.020508,951.112549 
	C2162.965088,924.929749 2151.803711,905.779114 2130.848877,891.879883 
	C2124.714355,887.810852 2116.876953,885.613037 2109.508301,884.284424 
	C2101.052734,882.759827 2092.252441,882.810791 2083.599365,882.774475 
	C2043.606812,882.606506 2003.613037,882.580566 1963.619995,882.629517 
	C1921.622803,882.680847 1879.624634,882.733215 1837.629028,883.055725 
	C1808.318604,883.280823 1779.011719,883.961426 1748.011230,884.676086 
M4461.194824,1206.073242 
	C4463.495117,1251.321655 4465.551758,1296.584229 4468.201172,1341.812134 
	C4469.467773,1363.445801 4472.153320,1384.946411 4481.047852,1405.116699 
	C4494.034180,1434.563110 4514.075684,1458.121582 4540.851562,1475.788574 
	C4549.720703,1481.640381 4559.222168,1486.642944 4568.787598,1491.309814 
	C4596.862305,1505.006836 4626.692383,1511.400635 4657.843262,1509.766479 
	C4688.968262,1508.133667 4712.639648,1485.594849 4715.048828,1455.759155 
	C4717.562012,1424.635498 4694.604492,1393.238647 4659.844238,1388.177979 
	C4650.619629,1386.834961 4641.330566,1385.854614 4632.174805,1384.148682 
	C4617.697266,1381.451416 4608.321777,1372.581421 4604.400391,1358.539551 
	C4602.534668,1351.860229 4601.473633,1344.818359 4601.097168,1337.883789 
	C4599.020020,1299.623901 4597.231445,1261.348145 4595.413086,1223.074463 
	C4594.132812,1196.122314 4592.996582,1169.163330 4591.736816,1142.210205 
	C4589.077148,1085.300903 4586.405762,1028.391968 4583.670410,971.486267 
	C4583.190918,961.503601 4582.907715,951.463867 4581.547363,941.586304 
	C4580.472168,933.776978 4579.657715,925.074158 4575.675781,918.663208 
	C4551.868164,880.328552 4511.715332,873.066589 4474.133789,893.856506 
	C4471.007812,895.585938 4468.373047,898.364441 4465.835938,900.972900 
	C4451.506836,915.708252 4448.146484,934.086853 4448.977051,953.635986 
	C4450.418945,987.585388 4452.067871,1021.526306 4453.714355,1055.466797 
	C4456.119141,1105.047607 4458.598145,1154.624756 4461.194824,1206.073242 
M3377.874756,1462.518433 
	C3391.314209,1432.908813 3382.916260,1401.935059 3356.591064,1384.225342 
	C3348.133301,1378.535645 3338.634766,1375.673706 3328.648438,1374.067749 
	C3320.107910,1372.694214 3311.481445,1371.540039 3303.130859,1369.372803 
	C3289.501465,1365.835571 3281.704834,1356.587646 3279.573975,1342.656494 
	C3279.020508,1339.037598 3278.424561,1335.399536 3278.254395,1331.751221 
	C3276.142090,1286.495483 3274.131348,1241.234863 3272.043213,1195.978027 
	C3269.325195,1137.072388 3266.568115,1078.168457 3263.812988,1019.264465 
	C3262.692627,995.309387 3261.728516,971.344604 3260.308105,947.407043 
	C3259.673828,936.716187 3257.150391,926.382690 3251.609131,916.956665 
	C3242.580566,901.598389 3228.406250,893.486938 3211.948730,888.681763 
	C3183.443115,880.358887 3153.609131,893.130432 3140.002197,919.600525 
	C3138.074219,923.351318 3136.640137,927.742493 3136.423096,931.912476 
	C3135.819336,943.517822 3135.505859,955.179382 3135.917236,966.789001 
	C3137.355957,1007.401184 3138.958008,1048.009766 3140.849365,1088.603271 
	C3143.888184,1153.814209 3147.018066,1219.022339 3150.500244,1284.210571 
	C3151.903076,1310.465088 3153.379883,1336.780151 3156.529541,1362.861694 
	C3161.110840,1400.796997 3180.215088,1431.305420 3210.188721,1454.270508 
	C3244.669434,1480.689087 3284.405518,1493.023804 3327.824951,1491.677368 
	C3348.584229,1491.033569 3365.566162,1481.712891 3377.874756,1462.518433 
z"/>
<path fill="#EFEFEF" opacity="1.000000" stroke="none" 
	d="
M2.000000,2273.000000 
	C2.665537,2272.173340 3.195946,2272.541260 3.795614,2273.552246 
	C3.333333,2274.000000 2.666667,2274.000000 2.000000,2273.000000 
z"/>
<path fill="#EFEFEF" opacity="1.000000" stroke="none" 
	d="
M6181.000000,2274.000000 
	C6180.178711,2273.337891 6180.546875,2272.807373 6181.551758,2272.204102 
	C6182.000000,2272.666748 6182.000000,2273.333252 6181.000000,2274.000000 
z"/>
<path fill="#EE9A4A" opacity="1.000000" stroke="none" 
	d="
M1147.276855,648.775208 
	C1115.957275,612.648865 1079.624878,583.664734 1038.989624,560.128906 
	C1016.795715,547.274292 993.826233,535.825500 969.519836,527.304810 
	C964.183838,525.434326 959.059998,522.962708 953.738892,521.044067 
	C949.884338,519.654297 945.865295,518.720581 941.919617,517.583496 
	C941.669861,518.186340 941.420166,518.789185 941.170410,519.392029 
	C948.033081,523.965393 954.783020,528.719482 961.777588,533.081421 
	C995.478271,554.097900 1024.498413,580.355225 1049.243652,611.330200 
	C1075.333496,643.988220 1093.561768,680.677612 1105.682617,720.666260 
	C1115.030029,751.504700 1119.629517,782.925476 1120.289551,815.027466 
	C1120.507935,825.652283 1121.163696,836.310547 1120.579468,846.896179 
	C1120.096924,855.643005 1118.062866,857.207336 1109.392090,857.473267 
	C1098.072021,857.820496 1086.734497,857.608398 1075.404419,857.611877 
	C959.770508,857.647095 844.136536,857.697998 728.502625,857.702209 
	C629.530884,857.705811 530.559082,857.637939 431.587311,857.652039 
	C421.258667,857.653503 410.930176,858.129272 400.601440,858.135498 
	C393.366119,858.139893 391.568787,856.246399 392.332794,849.169312 
	C392.866150,844.228394 394.079712,839.348999 395.165436,834.481445 
	C402.155762,803.143188 413.541077,773.366821 426.389282,744.001709 
	C442.233856,707.788269 461.863312,673.860413 485.981201,642.641907 
	C498.584656,626.327759 511.893463,610.454895 525.987854,595.417664 
	C555.787537,563.624512 590.261658,537.494812 627.667542,515.276550 
	C677.463440,485.698883 731.276611,466.953613 788.163391,456.773376 
	C795.034851,455.543732 802.033813,455.042633 808.950500,454.043793 
	C813.145264,453.437988 817.295593,452.524445 822.123657,451.626923 
	C821.883789,438.149475 818.759277,426.043518 815.213745,413.959045 
	C807.718811,388.413483 800.189880,362.873596 793.142090,337.203094 
	C789.769287,324.918274 788.534790,312.298950 792.049805,299.702484 
	C796.410583,284.075378 806.428772,273.336914 821.689270,268.450043 
	C840.493958,262.428253 859.867126,262.360596 878.870117,267.417786 
	C910.077881,275.723053 925.056702,299.044006 918.896118,330.997803 
	C913.860535,357.116333 907.055298,382.892273 901.112671,408.837952 
	C898.075439,422.098480 895.209473,435.398224 892.275635,448.636871 
	C897.972168,453.847992 904.750366,453.216797 910.682007,453.467255 
	C950.051514,455.129700 987.631531,465.266418 1024.672241,477.466919 
	C1075.047241,494.059387 1120.994385,519.254456 1163.733521,550.642883 
	C1186.377075,567.272766 1206.876709,586.151794 1226.959961,605.667542 
	C1263.560059,641.233337 1293.212646,682.223022 1319.150146,725.762207 
	C1337.189575,756.043701 1352.863037,787.793823 1364.358398,821.332703 
	C1367.162720,829.514771 1369.720093,837.789368 1372.124756,846.098450 
	C1374.654785,854.840820 1372.570190,857.660461 1363.149048,857.747681 
	C1344.489014,857.920532 1325.826050,857.744995 1307.164429,857.795471 
	C1287.169800,857.849609 1267.175415,858.054138 1247.180786,858.081055 
	C1237.622803,858.093933 1235.579712,856.366211 1233.907227,847.014954 
	C1232.208008,837.513367 1230.857544,827.948486 1229.104980,818.457458 
	C1220.775879,773.351074 1203.266602,731.935486 1179.482422,692.850952 
	C1170.072021,677.386902 1159.096802,663.258423 1147.276855,648.775208 
z"/>
<path fill="#EC7A03" opacity="1.000000" stroke="none" 
	d="
M990.517151,1198.649780 
	C1035.799561,1166.455933 1059.730103,1122.250854 1068.134155,1068.917358 
	C1070.678833,1052.768188 1070.305176,1052.760376 1086.484253,1052.855957 
	C1143.805298,1053.194580 1201.126831,1053.438843 1258.447388,1053.844238 
	C1275.852783,1053.967285 1275.865234,1054.153687 1275.172485,1070.958130 
	C1273.059814,1122.212524 1263.766113,1172.213745 1247.982666,1220.943604 
	C1235.309326,1260.072021 1218.029907,1297.322144 1196.518921,1332.277710 
	C1182.593994,1354.905762 1166.545776,1376.338745 1150.190552,1397.326538 
	C1135.676147,1415.952271 1120.153809,1433.925903 1103.777588,1450.937134 
	C1076.990845,1478.762451 1050.149414,1506.602173 1019.955078,1530.923462 
	C985.431458,1558.731812 950.901855,1586.483765 912.642456,1609.179688 
	C907.026184,1612.511353 902.331726,1612.638794 896.956299,1609.064941 
	C862.826111,1586.373535 828.459900,1564.052734 798.285583,1535.971680 
	C789.777344,1528.053833 779.576416,1521.948120 771.115295,1513.987183 
	C743.454407,1487.961670 715.207214,1462.438721 689.141479,1434.872803 
	C663.324341,1407.570068 638.158875,1379.436523 618.122742,1347.254761 
	C610.565552,1335.116455 602.047180,1323.575439 593.936035,1311.783569 
	C568.805481,1275.249146 551.022888,1235.039307 536.673828,1193.406738 
	C522.643921,1152.700317 513.849792,1110.603760 508.440582,1067.859253 
	C507.947784,1063.964844 508.375031,1059.953979 508.375031,1055.812988 
	C513.253357,1052.415283 518.629211,1052.804810 523.875488,1052.790771 
	C570.535889,1052.666504 617.196350,1052.572998 663.856812,1052.484131 
	C676.811401,1052.459473 689.766174,1052.480469 703.075745,1052.480469 
	C706.785645,1064.413818 710.334290,1076.477539 714.284851,1088.408081 
	C724.067993,1117.952026 739.899963,1143.769409 761.024353,1166.727417 
	C775.798767,1182.784424 790.867615,1198.053467 810.520020,1208.163818 
	C858.259399,1232.723633 907.148438,1236.199341 957.088257,1215.798096 
	C968.421997,1211.167969 979.002686,1204.694580 990.517151,1198.649780 
z"/>
<path fill="#EC7A04" opacity="1.000000" stroke="none" 
	d="
M5360.404785,1451.586914 
	C5334.210938,1417.778442 5321.767578,1379.961670 5319.850098,1338.099487 
	C5318.157715,1301.169678 5315.095215,1264.304810 5313.038574,1227.388916 
	C5310.981934,1190.468140 5309.356934,1153.522461 5307.666504,1116.582153 
	C5305.969238,1079.478882 5326.702637,1060.391113 5358.539062,1050.904297 
	C5385.857422,1042.763672 5426.702148,1056.280640 5442.065430,1088.812012 
	C5447.034668,1099.335083 5448.621094,1111.872803 5449.786621,1123.683350 
	C5451.846191,1144.549072 5452.459473,1165.560425 5453.563965,1186.516846 
	C5456.246094,1237.417969 5458.775879,1288.327148 5461.605957,1339.219849 
	C5462.009766,1346.482666 5463.619141,1353.694214 5464.897949,1360.889160 
	C5466.809570,1371.644043 5472.826660,1379.928101 5481.500977,1386.151855 
	C5516.976074,1411.603882 5555.717773,1391.987671 5562.798828,1362.728149 
	C5564.961914,1353.788330 5565.697754,1344.216431 5565.328125,1335.004639 
	C5564.235352,1307.718506 5562.084473,1280.476685 5560.705078,1253.199463 
	C5559.881348,1236.908081 5561.781250,1221.100220 5573.400391,1208.293335 
	C5585.238281,1195.245850 5600.083984,1187.032471 5617.393066,1184.570923 
	C5636.529785,1181.849731 5654.354004,1186.087280 5670.412109,1197.544556 
	C5686.307617,1208.885986 5695.826172,1224.219604 5697.864746,1243.237549 
	C5700.205078,1265.065796 5700.609375,1287.096069 5702.129883,1309.019409 
	C5703.188965,1324.287720 5704.485840,1339.547363 5706.072754,1354.769775 
	C5710.138184,1393.763672 5755.509766,1406.544678 5780.798340,1394.014648 
	C5794.090332,1387.429077 5800.479980,1376.157715 5802.209473,1362.327271 
	C5803.566406,1351.476562 5803.900391,1340.365845 5803.368652,1329.434692 
	C5801.394043,1288.845215 5798.754883,1248.288818 5796.603516,1207.707275 
	C5795.245605,1182.090454 5794.919922,1156.406860 5793.055664,1130.831665 
	C5789.573242,1083.043457 5825.509766,1055.101685 5862.592773,1052.842896 
	C5911.008301,1049.893677 5939.824707,1085.399658 5942.174805,1116.859619 
	C5944.309082,1145.428101 5946.056641,1174.027344 5947.763184,1202.625732 
	C5950.363281,1246.194092 5952.821289,1289.771240 5955.258301,1333.349243 
	C5956.564941,1356.703613 5955.999512,1379.788940 5950.121094,1402.783447 
	C5940.221680,1441.504883 5917.751953,1470.806519 5885.916504,1493.887573 
	C5854.979980,1516.317139 5819.719238,1526.070068 5782.373047,1529.547729 
	C5748.187012,1532.731323 5715.173828,1527.022705 5683.712402,1513.634644 
	C5672.145996,1508.712769 5661.440430,1501.682129 5650.575195,1495.221802 
	C5640.077637,1488.979736 5639.052246,1488.606079 5629.223633,1495.856445 
	C5612.001953,1508.561035 5592.426270,1515.320557 5571.959473,1520.868896 
	C5538.260254,1530.004395 5504.618164,1529.710815 5471.103027,1521.806763 
	C5426.541504,1511.297363 5389.844727,1487.639893 5360.404785,1451.586914 
z"/>
<path fill="#EC7A04" opacity="1.000000" stroke="none" 
	d="
M2677.711914,1422.285400 
	C2640.390625,1388.009644 2619.041260,1345.873901 2612.125732,1296.814697 
	C2608.274658,1269.494141 2606.395996,1241.830078 2604.937500,1214.251587 
	C2602.140137,1161.364136 2600.364990,1108.423340 2597.991943,1055.512451 
	C2596.394775,1019.906921 2594.442871,984.317505 2592.763428,948.715515 
	C2592.031494,933.202881 2593.045410,917.991882 2602.500244,904.706421 
	C2624.794922,873.378418 2662.427490,875.945923 2683.529541,889.422485 
	C2690.991943,894.188293 2697.482178,900.722778 2703.674316,907.163208 
	C2710.275391,914.028748 2711.267334,923.333252 2711.740723,932.349182 
	C2713.383301,963.621765 2714.856445,994.904175 2716.192139,1026.191528 
	C2716.945068,1043.831421 2717.288086,1061.488770 2717.862549,1079.136597 
	C2717.913330,1080.686279 2718.314941,1082.224609 2718.754150,1085.064453 
	C2721.790039,1083.241577 2724.075439,1082.202271 2725.974121,1080.679932 
	C2759.544678,1053.761719 2798.544189,1043.096191 2840.702881,1044.691040 
	C2873.343994,1045.925903 2904.355469,1055.336792 2933.431885,1070.386841 
	C2977.527100,1093.210571 3012.088867,1126.251831 3036.089355,1169.652832 
	C3059.834229,1212.591797 3068.242188,1258.963135 3062.979248,1307.685059 
	C3056.881592,1364.134766 3029.827393,1409.517090 2985.696777,1443.787354 
	C2947.749756,1473.255737 2903.781982,1488.629395 2855.206787,1490.572144 
	C2805.243652,1492.570312 2759.527100,1479.044434 2717.221436,1453.793579 
	C2703.087402,1445.357666 2691.167480,1433.212402 2677.711914,1422.285400 
M2894.209717,1355.364380 
	C2906.990723,1347.182129 2917.822266,1337.222900 2925.833740,1324.031616 
	C2946.830322,1289.458740 2939.506104,1231.808350 2915.911621,1205.491943 
	C2887.807617,1174.145142 2855.003662,1157.446045 2812.286133,1166.126953 
	C2774.475830,1173.810547 2746.310059,1195.049316 2734.534668,1231.841675 
	C2717.652588,1284.590820 2738.732422,1335.145752 2791.666016,1360.926392 
	C2825.416748,1377.364258 2860.073242,1375.934570 2894.209717,1355.364380 
z"/>
<path fill="#EC7A04" opacity="1.000000" stroke="none" 
	d="
M4949.302734,1049.021729 
	C4991.821289,1044.957642 5033.054199,1047.422974 5072.340332,1062.247070 
	C5121.437012,1080.773193 5164.596680,1108.746094 5196.987793,1150.903687 
	C5206.661621,1163.495239 5214.320312,1177.745117 5222.013672,1191.724365 
	C5233.985840,1213.479980 5241.387207,1236.945190 5245.844238,1261.355713 
	C5250.152832,1284.952881 5248.477539,1308.511597 5245.139648,1331.993286 
	C5241.334961,1358.755859 5231.200195,1383.303711 5217.612305,1406.477417 
	C5201.333496,1434.240479 5179.270996,1456.214844 5152.468750,1474.176392 
	C5128.632324,1490.150269 5103.193848,1502.399658 5075.832031,1509.938232 
	C5041.250977,1519.466064 5006.043945,1522.860840 4969.993164,1517.510376 
	C4928.001465,1511.277954 4889.646484,1497.168701 4854.803223,1472.672119 
	C4834.174805,1458.169434 4815.760254,1441.650024 4799.459961,1422.499390 
	C4774.197266,1392.818970 4755.389160,1359.790771 4748.069824,1321.235352 
	C4737.910156,1267.715820 4741.220703,1215.438965 4768.266113,1166.922852 
	C4788.638184,1130.378296 4817.742188,1102.121582 4854.334961,1081.306519 
	C4883.777344,1064.558594 4915.479980,1055.272095 4949.302734,1049.021729 
M5105.677246,1259.520142 
	C5101.446289,1249.792603 5098.567383,1239.148193 5092.715820,1230.519531 
	C5078.378418,1209.377075 5058.832031,1193.933350 5034.875000,1184.657104 
	C4989.382812,1167.042480 4936.916504,1173.059082 4902.974609,1212.123535 
	C4879.669434,1238.945435 4871.391113,1270.148071 4880.357422,1304.221069 
	C4887.372559,1330.880249 4902.915039,1353.125366 4926.210449,1368.842163 
	C4964.566895,1394.720459 5005.610840,1400.678833 5048.539062,1382.088501 
	C5101.475098,1359.164307 5120.013184,1303.482544 5105.677246,1259.520142 
z"/>
<path fill="#EC7A04" opacity="1.000000" stroke="none" 
	d="
M4315.293945,1211.014404 
	C4321.907227,1227.756470 4321.653320,1243.860718 4314.457031,1259.333740 
	C4305.047852,1279.565552 4288.874512,1292.020874 4266.565918,1293.862305 
	C4246.362793,1295.529907 4225.976562,1295.330444 4205.671387,1295.329224 
	C4173.351074,1295.327393 4141.031250,1294.772949 4108.710449,1294.556519 
	C4105.476562,1294.534912 4102.237793,1295.233032 4098.758789,1295.624390 
	C4098.343750,1298.228394 4097.695312,1300.148804 4097.789062,1302.032471 
	C4099.172852,1329.977417 4100.779785,1357.911499 4102.070801,1385.860352 
	C4102.946289,1404.820190 4103.287109,1423.804077 4104.092285,1442.767700 
	C4105.286133,1470.881592 4078.291260,1501.114746 4042.646729,1501.298950 
	C4028.091797,1501.374268 4014.070068,1497.741943 4001.780029,1489.800659 
	C3985.631836,1479.366211 3975.515869,1464.480835 3972.433594,1445.266479 
	C3971.485352,1439.354980 3970.737061,1433.372559 3970.469482,1427.396851 
	C3968.175049,1376.141235 3966.075439,1324.877197 3963.792480,1273.621094 
	C3961.242432,1216.371582 3958.554688,1159.128418 3955.940186,1101.881714 
	C3953.963867,1058.616455 3952.149902,1015.343262 3949.965088,972.088623 
	C3949.225830,957.459167 3947.462646,942.948730 3949.893555,928.251221 
	C3954.227295,902.051270 3972.238037,882.597900 3998.424072,877.754700 
	C4008.852539,875.825928 4019.546387,874.418579 4030.126709,874.370544 
	C4114.439941,873.987915 4198.754883,873.901794 4283.069336,873.973755 
	C4294.683105,873.983643 4306.471191,874.344543 4317.872559,876.313904 
	C4342.665527,880.596436 4359.133789,895.936646 4367.743652,919.055542 
	C4376.733887,943.195190 4370.827637,965.188416 4354.157715,984.023499 
	C4344.092773,995.396057 4330.649414,1001.707947 4315.315430,1002.103455 
	C4281.682617,1002.970825 4248.036621,1003.593933 4214.393555,1003.731140 
	C4175.737793,1003.888855 4137.079102,1003.393677 4098.421875,1003.224243 
	C4083.757080,1003.159973 4083.566406,1003.221680 4084.169434,1017.305725 
	C4086.220947,1065.235962 4088.413818,1113.160156 4090.590576,1161.084839 
	C4090.647949,1162.348267 4091.135254,1163.592041 4091.594727,1165.601074 
	C4103.643066,1166.067627 4115.541992,1166.844971 4127.446289,1166.928467 
	C4160.426758,1167.159668 4193.410156,1166.987549 4226.390625,1167.223999 
	C4237.042969,1167.300293 4247.724121,1167.769165 4258.332520,1168.719849 
	C4285.491699,1171.153198 4303.641602,1186.160522 4315.293945,1211.014404 
z"/>
<path fill="#EC7A04" opacity="1.000000" stroke="none" 
	d="
M3749.664062,1072.352051 
	C3763.123779,1080.476562 3776.141602,1087.935547 3788.690430,1096.114380 
	C3795.599854,1100.617676 3802.530029,1105.594238 3808.037842,1111.643921 
	C3822.152588,1127.146851 3836.102783,1142.889038 3848.851807,1159.507568 
	C3855.217285,1167.804688 3858.802490,1178.233154 3863.655518,1187.692261 
	C3873.800537,1207.467041 3879.666504,1228.569092 3882.868896,1250.450562 
	C3885.123047,1265.850830 3883.832764,1281.005127 3878.875488,1295.815063 
	C3872.834961,1313.862427 3859.977783,1324.055054 3841.452637,1325.762695 
	C3824.244385,1327.349243 3806.873779,1327.587891 3789.572021,1327.650391 
	C3758.589355,1327.762207 3727.603027,1327.396118 3696.620605,1327.046997 
	C3653.981689,1326.566284 3611.344482,1325.901123 3568.706055,1325.362549 
	C3564.846924,1325.313843 3560.983643,1325.610718 3556.422852,1325.771729 
	C3556.942871,1328.205933 3556.885742,1329.626831 3557.510010,1330.618408 
	C3582.689453,1370.594482 3618.838135,1389.617798 3666.040283,1386.125488 
	C3684.125977,1384.787354 3701.416504,1378.943359 3717.315430,1370.344116 
	C3741.569580,1357.225708 3770.124023,1367.648315 3785.189941,1381.094971 
	C3808.137695,1401.576538 3810.471191,1426.899048 3802.695068,1450.286011 
	C3798.644287,1462.469238 3789.453369,1470.850464 3778.951660,1477.774780 
	C3757.612793,1491.844360 3733.717041,1498.705688 3708.705811,1501.876343 
	C3667.928223,1507.045288 3627.482178,1505.386353 3588.127197,1492.691650 
	C3544.233643,1478.532837 3505.463623,1455.635620 3474.600342,1420.943359 
	C3448.360840,1391.448730 3428.495605,1358.120850 3420.188965,1319.015991 
	C3413.994141,1289.852295 3411.685059,1260.380981 3416.674316,1230.677002 
	C3419.993408,1210.915405 3424.184814,1191.442871 3433.154053,1173.298584 
	C3441.753662,1155.902710 3451.979736,1139.674438 3465.014648,1125.161499 
	C3484.371582,1103.609497 3506.614014,1085.977539 3532.282227,1072.465454 
	C3546.252930,1065.111206 3561.059082,1060.334473 3575.987549,1055.569092 
	C3610.156250,1044.661621 3645.097900,1044.690063 3679.798096,1050.112305 
	C3703.689941,1053.845703 3727.444580,1059.987671 3749.664062,1072.352051 
M3581.832031,1180.772339 
	C3566.574463,1192.127441 3555.980469,1207.005981 3547.279297,1225.846313 
	C3606.907715,1226.422974 3665.024170,1227.075928 3723.142578,1227.449951 
	C3731.966309,1227.506714 3740.798828,1226.268677 3749.837646,1225.614258 
	C3736.030518,1174.219238 3645.661133,1135.927246 3581.832031,1180.772339 
z"/>
<path fill="#EC7B04" opacity="1.000000" stroke="none" 
	d="
M2292.002441,1042.752441 
	C2353.692627,1043.046021 2406.156494,1065.459595 2451.273926,1104.795654 
	C2480.911377,1130.635254 2500.629883,1163.760498 2513.881592,1200.873535 
	C2521.508789,1222.234619 2524.016357,1244.407837 2525.222656,1266.601807 
	C2528.096680,1319.471558 2529.742676,1372.408081 2531.869629,1425.318237 
	C2531.936523,1426.980469 2531.783203,1428.650513 2531.825195,1430.314697 
	C2532.415283,1453.669312 2521.095947,1469.647827 2500.613037,1479.392212 
	C2479.022949,1489.663330 2458.514404,1486.752563 2439.568359,1472.551147 
	C2435.877197,1469.784546 2432.660889,1466.292114 2429.586182,1462.815308 
	C2423.127197,1455.511230 2423.229248,1455.432983 2413.764404,1459.542480 
	C2380.341553,1474.054321 2345.506592,1482.004150 2308.973877,1481.573730 
	C2271.033447,1481.126953 2235.193848,1472.638062 2201.769775,1454.052246 
	C2161.750000,1431.798584 2130.358398,1401.309204 2108.125488,1361.081543 
	C2092.519043,1332.843994 2084.269287,1302.843506 2081.860596,1270.841553 
	C2080.374023,1251.086914 2081.383301,1231.588989 2084.815918,1212.151978 
	C2091.247314,1175.733154 2107.764648,1144.091309 2131.777588,1116.456909 
	C2160.977539,1082.853149 2197.378906,1060.045288 2240.707520,1049.592407 
	C2257.094482,1045.639160 2274.266357,1044.937988 2292.002441,1042.752441 
M2381.763428,1332.730591 
	C2399.612061,1312.323853 2407.328125,1287.928955 2405.427490,1261.572876 
	C2402.319092,1218.471436 2378.757324,1188.716919 2339.920898,1171.003418 
	C2330.926270,1166.901001 2321.159668,1163.244141 2311.441406,1162.177612 
	C2247.318115,1155.140259 2210.028564,1200.808716 2201.740234,1243.705688 
	C2193.369141,1287.029907 2221.675781,1336.637573 2262.540039,1354.766968 
	C2308.964844,1375.363281 2355.884033,1359.445923 2381.763428,1332.730591 
z"/>
<path fill="#EC9848" opacity="1.000000" stroke="none" 
	d="
M772.000000,906.004395 
	C884.958313,906.020386 996.916687,906.066956 1108.875000,906.056702 
	C1219.832642,906.046570 1330.790283,905.978333 1441.747925,905.937927 
	C1452.435425,905.934021 1463.023926,906.068237 1472.905762,911.283325 
	C1482.893066,916.554016 1490.379395,923.925720 1492.259155,935.238220 
	C1493.769531,944.328125 1495.220825,953.800232 1494.278809,962.850891 
	C1492.026855,984.489502 1479.224609,995.991516 1457.408081,997.737183 
	C1452.104370,998.161560 1446.752563,998.073181 1441.422852,998.072021 
	C1269.484985,998.032776 1097.547241,997.943665 925.609375,997.928955 
	C730.013367,997.912231 534.417297,997.963867 338.821289,997.961365 
	C332.161560,997.961243 325.403259,998.380310 318.859283,997.436340 
	C291.257141,993.454895 277.064819,968.602356 280.638031,942.320862 
	C281.039215,939.369934 281.887512,936.456543 282.762421,933.597290 
	C287.734039,917.349243 299.056488,907.889526 316.176453,906.705383 
	C327.460846,905.924805 338.821045,906.093445 350.147400,906.089111 
	C490.431610,906.035828 630.715820,906.028931 772.000000,906.004395 
z"/>
<path fill="#EB7A04" opacity="1.000000" stroke="none" 
	d="
M1748.857178,884.557312 
	C1779.011719,883.961426 1808.318604,883.280823 1837.629028,883.055725 
	C1879.624634,882.733215 1921.622803,882.680847 1963.619995,882.629517 
	C2003.613037,882.580566 2043.606812,882.606506 2083.599365,882.774475 
	C2092.252441,882.810791 2101.052734,882.759827 2109.508301,884.284424 
	C2116.876953,885.613037 2124.714355,887.810852 2130.848877,891.879883 
	C2151.803711,905.779114 2162.965088,924.929749 2160.020508,951.112549 
	C2157.407227,974.349792 2136.553467,996.449463 2112.673584,998.053040 
	C2089.428711,999.614075 2066.055664,999.376831 2042.735718,999.672546 
	C2030.076660,999.833069 2017.408813,999.263611 2004.748657,999.389954 
	C1995.186523,999.485291 1994.428711,1000.214478 1994.767700,1009.824890 
	C1995.848511,1040.466553 1997.028931,1071.106567 1998.475830,1101.733032 
	C1999.969849,1133.356079 2002.024902,1164.952881 2003.473633,1196.577881 
	C2006.645630,1265.816772 2009.656982,1335.063477 2012.536011,1404.315186 
	C2012.880371,1412.598755 2012.646362,1421.019165 2011.566772,1429.229736 
	C2007.115234,1463.082031 1973.505859,1484.202026 1940.630493,1474.974609 
	C1913.940430,1467.483154 1896.601685,1442.779297 1895.785645,1417.718018 
	C1894.365356,1374.091064 1891.779541,1330.502197 1889.702026,1286.896484 
	C1885.737305,1203.685791 1881.778931,1120.474854 1877.840820,1037.262939 
	C1877.447510,1028.949219 1877.258789,1020.625793 1876.880859,1012.311157 
	C1876.732666,1009.051819 1876.325317,1005.804199 1875.947510,1001.556213 
	C1869.490723,1001.010803 1863.614624,1000.107605 1857.735352,1000.086426 
	C1827.737915,999.978882 1797.739502,1000.044373 1767.741943,1000.168396 
	C1756.595947,1000.214539 1745.963501,998.665466 1735.826904,993.490784 
	C1708.467285,979.523865 1697.332153,952.403015 1705.174072,923.672974 
	C1710.929932,902.585327 1726.274658,889.493469 1748.857178,884.557312 
z"/>
<path fill="#EC7A04" opacity="1.000000" stroke="none" 
	d="
M4461.120117,1205.138428 
	C4458.598145,1154.624756 4456.119141,1105.047607 4453.714355,1055.466797 
	C4452.067871,1021.526306 4450.418945,987.585388 4448.977051,953.635986 
	C4448.146484,934.086853 4451.506836,915.708252 4465.835938,900.972900 
	C4468.373047,898.364441 4471.007812,895.585938 4474.133789,893.856506 
	C4511.715332,873.066589 4551.868164,880.328552 4575.675781,918.663208 
	C4579.657715,925.074158 4580.472168,933.776978 4581.547363,941.586304 
	C4582.907715,951.463867 4583.190918,961.503601 4583.670410,971.486267 
	C4586.405762,1028.391968 4589.077148,1085.300903 4591.736816,1142.210205 
	C4592.996582,1169.163330 4594.132812,1196.122314 4595.413086,1223.074463 
	C4597.231445,1261.348145 4599.020020,1299.623901 4601.097168,1337.883789 
	C4601.473633,1344.818359 4602.534668,1351.860229 4604.400391,1358.539551 
	C4608.321777,1372.581421 4617.697266,1381.451416 4632.174805,1384.148682 
	C4641.330566,1385.854614 4650.619629,1386.834961 4659.844238,1388.177979 
	C4694.604492,1393.238647 4717.562012,1424.635498 4715.048828,1455.759155 
	C4712.639648,1485.594849 4688.968262,1508.133667 4657.843262,1509.766479 
	C4626.692383,1511.400635 4596.862305,1505.006836 4568.787598,1491.309814 
	C4559.222168,1486.642944 4549.720703,1481.640381 4540.851562,1475.788574 
	C4514.075684,1458.121582 4494.034180,1434.563110 4481.047852,1405.116699 
	C4472.153320,1384.946411 4469.467773,1363.445801 4468.201172,1341.812134 
	C4465.551758,1296.584229 4463.495117,1251.321655 4461.120117,1205.138428 
z"/>
<path fill="#EC7A04" opacity="1.000000" stroke="none" 
	d="
M3377.508789,1463.168213 
	C3365.566162,1481.712891 3348.584229,1491.033569 3327.824951,1491.677368 
	C3284.405518,1493.023804 3244.669434,1480.689087 3210.188721,1454.270508 
	C3180.215088,1431.305420 3161.110840,1400.796997 3156.529541,1362.861694 
	C3153.379883,1336.780151 3151.903076,1310.465088 3150.500244,1284.210571 
	C3147.018066,1219.022339 3143.888184,1153.814209 3140.849365,1088.603271 
	C3138.958008,1048.009766 3137.355957,1007.401184 3135.917236,966.789001 
	C3135.505859,955.179382 3135.819336,943.517822 3136.423096,931.912476 
	C3136.640137,927.742493 3138.074219,923.351318 3140.002197,919.600525 
	C3153.609131,893.130432 3183.443115,880.358887 3211.948730,888.681763 
	C3228.406250,893.486938 3242.580566,901.598389 3251.609131,916.956665 
	C3257.150391,926.382690 3259.673828,936.716187 3260.308105,947.407043 
	C3261.728516,971.344604 3262.692627,995.309387 3263.812988,1019.264465 
	C3266.568115,1078.168457 3269.325195,1137.072388 3272.043213,1195.978027 
	C3274.131348,1241.234863 3276.142090,1286.495483 3278.254395,1331.751221 
	C3278.424561,1335.399536 3279.020508,1339.037598 3279.573975,1342.656494 
	C3281.704834,1356.587646 3289.501465,1365.835571 3303.130859,1369.372803 
	C3311.481445,1371.540039 3320.107910,1372.694214 3328.648438,1374.067749 
	C3338.634766,1375.673706 3348.133301,1378.535645 3356.591064,1384.225342 
	C3382.916260,1401.935059 3391.314209,1432.908813 3377.508789,1463.168213 
z"/>
<path fill="#FDFDFA" opacity="1.000000" stroke="none" 
	d="
M2893.605469,1355.770996 
	C2860.073242,1375.934570 2825.416748,1377.364258 2791.666016,1360.926392 
	C2738.732422,1335.145752 2717.652588,1284.590820 2734.534668,1231.841675 
	C2746.310059,1195.049316 2774.475830,1173.810547 2812.286133,1166.126953 
	C2855.003662,1157.446045 2887.807617,1174.145142 2915.911621,1205.491943 
	C2939.506104,1231.808350 2946.830322,1289.458740 2925.833740,1324.031616 
	C2917.822266,1337.222900 2906.990723,1347.182129 2893.605469,1355.770996 
z"/>
<path fill="#FDFDFB" opacity="1.000000" stroke="none" 
	d="
M5105.892578,1260.306396 
	C5120.013184,1303.482544 5101.475098,1359.164307 5048.539062,1382.088501 
	C5005.610840,1400.678833 4964.566895,1394.720459 4926.210449,1368.842163 
	C4902.915039,1353.125366 4887.372559,1330.880249 4880.357422,1304.221069 
	C4871.391113,1270.148071 4879.669434,1238.945435 4902.974609,1212.123535 
	C4936.916504,1173.059082 4989.382812,1167.042480 5034.875000,1184.657104 
	C5058.832031,1193.933350 5078.378418,1209.377075 5092.715820,1230.519531 
	C5098.567383,1239.148193 5101.446289,1249.792603 5105.892578,1260.306396 
z"/>
<path fill="#FDFBF7" opacity="1.000000" stroke="none" 
	d="
M3582.407715,1180.341431 
	C3645.661133,1135.927246 3736.030518,1174.219238 3749.837646,1225.614258 
	C3740.798828,1226.268677 3731.966309,1227.506714 3723.142578,1227.449951 
	C3665.024170,1227.075928 3606.907715,1226.422974 3547.279297,1225.846313 
	C3555.980469,1207.005981 3566.574463,1192.127441 3582.407715,1180.341431 
z"/>
<path fill="#FDFDFB" opacity="1.000000" stroke="none" 
	d="
M2381.295410,1333.263916 
	C2355.884033,1359.445923 2308.964844,1375.363281 2262.540039,1354.766968 
	C2221.675781,1336.637573 2193.369141,1287.029907 2201.740234,1243.705688 
	C2210.028564,1200.808716 2247.318115,1155.140259 2311.441406,1162.177612 
	C2321.159668,1163.244141 2330.926270,1166.901001 2339.920898,1171.003418 
	C2378.757324,1188.716919 2402.319092,1218.471436 2405.427490,1261.572876 
	C2407.328125,1287.928955 2399.612061,1312.323853 2381.295410,1333.263916 
z"/>
</svg>